<svg width="18" height="19" viewBox="0 0 18 19" fill="none" xmlns="http://www.w3.org/2000/svg">
<path d="M15.1875 2.44531H6.1875C6.03832 2.44531 5.89524 2.50458 5.78975 2.61007C5.68426 2.71555 5.625 2.85863 5.625 3.00781V5.82031H2.8125C2.66332 5.82031 2.52024 5.87958 2.41475 5.98506C2.30926 6.09055 2.25 6.23363 2.25 6.38281V15.3828C2.25 15.532 2.30926 15.6751 2.41475 15.7806C2.52024 15.886 2.66332 15.9453 2.8125 15.9453H11.8125C11.9617 15.9453 12.1048 15.886 12.2102 15.7806C12.3157 15.6751 12.375 15.532 12.375 15.3828V12.5703H15.1875C15.3367 12.5703 15.4798 12.511 15.5852 12.4056C15.6907 12.3001 15.75 12.157 15.75 12.0078V3.00781C15.75 2.85863 15.6907 2.71555 15.5852 2.61007C15.4798 2.50458 15.3367 2.44531 15.1875 2.44531ZM11.25 14.8203H3.375V6.94531H11.25V14.8203ZM14.625 11.4453H12.375V6.38281C12.375 6.23363 12.3157 6.09055 12.2102 5.98506C12.1048 5.87958 11.9617 5.82031 11.8125 5.82031H6.75V3.57031H14.625V11.4453Z" fill="black"/>
</svg>
