<svg width="18" height="19" viewBox="0 0 18 19" fill="none" xmlns="http://www.w3.org/2000/svg">
<path d="M5.25 6.22656H4.5C4.10218 6.22656 3.72064 6.3846 3.43934 6.6659C3.15804 6.94721 3 7.32874 3 7.72656V14.4766C3 14.8744 3.15804 15.2559 3.43934 15.5372C3.72064 15.8185 4.10218 15.9766 4.5 15.9766H11.25C11.6478 15.9766 12.0294 15.8185 12.3107 15.5372C12.592 15.2559 12.75 14.8744 12.75 14.4766V13.7266" stroke="black" stroke-width="1.5" stroke-linecap="round" stroke-linejoin="round"/>
<path d="M12 4.72652L14.25 6.97652M15.2887 5.91527C15.5841 5.61989 15.7501 5.21926 15.7501 4.80152C15.7501 4.38378 15.5841 3.98316 15.2887 3.68777C14.9934 3.39239 14.5927 3.22644 14.175 3.22644C13.7573 3.22644 13.3566 3.39239 13.0613 3.68777L6.75 9.97652V12.2265H9L15.2887 5.91527Z" stroke="black" stroke-width="1.5" stroke-linecap="round" stroke-linejoin="round"/>
</svg>
