<svg width="24" height="25" viewBox="0 0 24 25" fill="none" xmlns="http://www.w3.org/2000/svg">
<rect y="0.890625" width="24" height="24" rx="12" fill="white"/>
<path fill-rule="evenodd" clip-rule="evenodd" d="M12.7403 6.25315C12.97 6.14696 13.2271 6.11468 13.476 6.16075C13.725 6.20683 13.9534 6.32899 14.13 6.5104L18.3735 10.7892C18.876 11.2954 18.876 12.1272 18.3735 12.6342L14.13 16.9107C13.9536 17.092 13.7253 17.2142 13.4766 17.2605C13.2279 17.3068 12.9709 17.275 12.741 17.1694C12.5155 17.0657 12.3249 16.8988 12.1922 16.6891C12.0595 16.4793 11.9904 16.2356 11.9933 15.9874V14.8302C9.432 15.1122 7.554 16.9204 6.57825 19.1367C6.53689 19.2956 6.43897 19.4341 6.30285 19.526C6.16672 19.618 6.00174 19.6571 5.83881 19.6362C5.67588 19.6152 5.5262 19.5355 5.4178 19.4121C5.30941 19.2887 5.24975 19.1299 5.25 18.9657V18.9454C5.25014 18.9145 5.25239 18.8837 5.25675 18.8532C5.43825 16.3872 6.00675 14.0479 7.15125 12.2149C8.22975 10.4884 9.8115 9.2269 11.9933 8.7439V7.43365C11.9933 6.8899 12.3083 6.44965 12.7403 6.25315ZM7.068 15.9447C8.43375 14.4724 10.323 13.4502 12.6653 13.4412C12.7541 13.4408 12.8422 13.4579 12.9245 13.4917C13.0067 13.5254 13.0815 13.5751 13.1445 13.6378C13.2075 13.7005 13.2575 13.7751 13.2916 13.8571C13.3257 13.9392 13.3433 14.0273 13.3433 14.1162V15.7864L17.3873 11.7117L13.3433 7.6339V9.30415C13.3433 9.46565 13.2854 9.62181 13.1801 9.74428C13.0749 9.86676 12.9292 9.94743 12.7695 9.97165C10.7123 10.2852 9.27675 11.3599 8.2965 12.9297C7.7565 13.7944 7.3515 14.8144 7.068 15.9447Z" fill="#212121"/>
</svg>
