<svg width="12" height="4" viewBox="0 0 12 4" fill="none" xmlns="http://www.w3.org/2000/svg">
<path fill-rule="evenodd" clip-rule="evenodd" d="M6 2.07812C6.02486 2.07812 6.04871 2.06825 6.06629 2.05067C6.08387 2.03308 6.09375 2.00924 6.09375 1.98438C6.09375 1.95951 6.08387 1.93567 6.06629 1.91808C6.04871 1.9005 6.02486 1.89062 6 1.89062C5.97514 1.89062 5.95129 1.9005 5.93371 1.91808C5.91613 1.93567 5.90625 1.95951 5.90625 1.98438C5.90625 2.00924 5.91613 2.03308 5.93371 2.05067C5.95129 2.06825 5.97514 2.07812 6 2.07812ZM4.59375 1.98438C4.59375 1.7997 4.63012 1.61684 4.70079 1.44623C4.77147 1.27561 4.87505 1.12059 5.00563 0.990006C5.13621 0.859423 5.29124 0.75584 5.46185 0.685169C5.63247 0.614499 5.81533 0.578125 6 0.578125C6.18467 0.578125 6.36753 0.614499 6.53815 0.685169C6.70876 0.75584 6.86379 0.859423 6.99437 0.990006C7.12495 1.12059 7.22853 1.27561 7.29921 1.44623C7.36988 1.61684 7.40625 1.7997 7.40625 1.98438C7.40625 2.35734 7.25809 2.71502 6.99437 2.97874C6.73065 3.24247 6.37296 3.39062 6 3.39062C5.62704 3.39062 5.26935 3.24247 5.00563 2.97874C4.74191 2.71502 4.59375 2.35734 4.59375 1.98438ZM10.5938 2.07812C10.6186 2.07812 10.6425 2.06825 10.66 2.05067C10.6776 2.03308 10.6875 2.00924 10.6875 1.98438C10.6875 1.95951 10.6776 1.93567 10.66 1.91808C10.6425 1.9005 10.6186 1.89062 10.5938 1.89062C10.5689 1.89062 10.545 1.9005 10.5275 1.91808C10.5099 1.93567 10.5 1.95951 10.5 1.98438C10.5 2.00924 10.5099 2.03308 10.5275 2.05067C10.545 2.06825 10.5689 2.07812 10.5938 2.07812ZM9.1875 1.98438C9.1875 1.61141 9.33566 1.25373 9.59938 0.990006C9.8631 0.726283 10.2208 0.578125 10.5938 0.578125C10.9667 0.578125 11.3244 0.726283 11.5881 0.990006C11.8518 1.25373 12 1.61141 12 1.98438C12 2.35734 11.8518 2.71502 11.5881 2.97874C11.3244 3.24247 10.9667 3.39062 10.5938 3.39062C10.2208 3.39062 9.8631 3.24247 9.59938 2.97874C9.33566 2.71502 9.1875 2.35734 9.1875 1.98438ZM1.40625 2.07812C1.43111 2.07812 1.45496 2.06825 1.47254 2.05067C1.49012 2.03308 1.5 2.00924 1.5 1.98438C1.5 1.95951 1.49012 1.93567 1.47254 1.91808C1.45496 1.9005 1.43111 1.89062 1.40625 1.89062C1.38139 1.89062 1.35754 1.9005 1.33996 1.91808C1.32238 1.93567 1.3125 1.95951 1.3125 1.98438C1.3125 2.00924 1.32238 2.03308 1.33996 2.05067C1.35754 2.06825 1.38139 2.07812 1.40625 2.07812ZM0 1.98438C-3.89166e-09 1.7997 0.0363738 1.61684 0.107044 1.44623C0.177715 1.27561 0.281299 1.12059 0.411881 0.990006C0.542463 0.859423 0.697487 0.75584 0.868101 0.685169C1.03872 0.614499 1.22158 0.578125 1.40625 0.578125C1.59092 0.578125 1.77378 0.614499 1.9444 0.685169C2.11501 0.75584 2.27004 0.859423 2.40062 0.990006C2.5312 1.12059 2.63478 1.27561 2.70546 1.44623C2.77613 1.61684 2.8125 1.7997 2.8125 1.98438C2.8125 2.35734 2.66434 2.71502 2.40062 2.97874C2.1369 3.24247 1.77921 3.39062 1.40625 3.39062C1.03329 3.39062 0.675604 3.24247 0.411881 2.97874C0.148158 2.71502 7.85956e-09 2.35734 0 1.98438Z" fill="#212121"/>
</svg>
