<svg width="19" height="19" viewBox="0 0 19 19" fill="none" xmlns="http://www.w3.org/2000/svg">
<path d="M16 2.94531H7C6.85082 2.94531 6.70774 3.00458 6.60225 3.11007C6.49676 3.21555 6.4375 3.35863 6.4375 3.50781V6.32031H3.625C3.47582 6.32031 3.33274 6.37958 3.22725 6.48506C3.12176 6.59055 3.0625 6.73363 3.0625 6.88281V15.8828C3.0625 16.032 3.12176 16.1751 3.22725 16.2806C3.33274 16.386 3.47582 16.4453 3.625 16.4453H12.625C12.7742 16.4453 12.9173 16.386 13.0227 16.2806C13.1282 16.1751 13.1875 16.032 13.1875 15.8828V13.0703H16C16.1492 13.0703 16.2923 13.011 16.3977 12.9056C16.5032 12.8001 16.5625 12.657 16.5625 12.5078V3.50781C16.5625 3.35863 16.5032 3.21555 16.3977 3.11007C16.2923 3.00458 16.1492 2.94531 16 2.94531ZM12.0625 15.3203H4.1875V7.44531H12.0625V15.3203ZM15.4375 11.9453H13.1875V6.88281C13.1875 6.73363 13.1282 6.59055 13.0227 6.48506C12.9173 6.37958 12.7742 6.32031 12.625 6.32031H7.5625V4.07031H15.4375V11.9453Z" fill="black"/>
</svg>
