<svg width="18" height="19" viewBox="0 0 18 19" fill="none" xmlns="http://www.w3.org/2000/svg">
<path d="M16.2803 9.05571L10.2802 3.05571C10.1754 2.95085 10.0417 2.87945 9.89627 2.85052C9.75081 2.8216 9.60003 2.83645 9.46301 2.8932C9.32598 2.94995 9.20886 3.04606 9.12645 3.16937C9.04404 3.29267 9.00003 3.43765 9 3.58596V6.24471C6.95122 6.43431 5.04692 7.38161 3.65977 8.90123C2.27262 10.4209 1.50245 12.4034 1.5 14.461V15.586C1.50012 15.7416 1.54868 15.8934 1.63896 16.0203C1.72923 16.1471 1.85674 16.2427 2.00379 16.2938C2.15085 16.3449 2.31017 16.349 2.45965 16.3055C2.60913 16.262 2.74136 16.173 2.838 16.051C3.57288 15.1773 4.47446 14.4588 5.49007 13.9374C6.50569 13.416 7.61501 13.1022 8.75325 13.0142C8.79075 13.0097 8.8845 13.0022 9 12.9947V15.586C9.00003 15.7343 9.04404 15.8792 9.12645 16.0026C9.20886 16.1259 9.32598 16.222 9.46301 16.2787C9.60003 16.3355 9.75081 16.3503 9.89627 16.3214C10.0417 16.2925 10.1754 16.2211 10.2802 16.1162L16.2803 10.1162C16.4209 9.97556 16.4998 9.78483 16.4998 9.58596C16.4998 9.38709 16.4209 9.19636 16.2803 9.05571ZM10.5 13.7755V12.211C10.5 12.012 10.421 11.8213 10.2803 11.6806C10.1397 11.54 9.94891 11.461 9.75 11.461C9.55875 11.461 8.778 11.4985 8.5785 11.5247C6.5571 11.7107 4.63296 12.4787 3.039 13.7357C3.21993 12.0815 4.00465 10.5522 5.24292 9.44058C6.48118 8.32894 8.08596 7.7131 9.75 7.71096C9.94891 7.71096 10.1397 7.63194 10.2803 7.49129C10.421 7.35064 10.5 7.15987 10.5 6.96096V5.39646L14.6895 9.58596L10.5 13.7755Z" fill="black"/>
</svg>
