<svg width="161" height="49" viewBox="0 0 161 49" fill="none" xmlns="http://www.w3.org/2000/svg">
<rect y="0.5" width="48" height="48" rx="8" fill="#2A85FF"/>
<path d="M61.44 32.5V17.6H66.98C67.9933 17.6 68.8867 17.7867 69.66 18.16C70.4467 18.52 71.06 19.0533 71.5 19.76C71.94 20.4533 72.16 21.3 72.16 22.3C72.16 23.3267 71.9133 24.2 71.42 24.92C70.94 25.64 70.2867 26.1733 69.46 26.52L72.88 32.5H69.8L66.14 25.96L67.9 27H64.16V32.5H61.44ZM64.16 24.6H67.02C67.5133 24.6 67.94 24.5067 68.3 24.32C68.66 24.12 68.94 23.8467 69.14 23.5C69.34 23.1533 69.44 22.7533 69.44 22.3C69.44 21.8333 69.34 21.4333 69.14 21.1C68.94 20.7533 68.66 20.4867 68.3 20.3C67.94 20.1 67.5133 20 67.02 20H64.16V24.6ZM78.9972 32.74C77.8772 32.74 76.8972 32.4867 76.0572 31.98C75.2172 31.4733 74.5639 30.7867 74.0972 29.92C73.6305 29.0533 73.3972 28.0933 73.3972 27.04C73.3972 25.9467 73.6305 24.98 74.0972 24.14C74.5772 23.2867 75.2239 22.6133 76.0372 22.12C76.8639 21.6267 77.7839 21.38 78.7972 21.38C79.6505 21.38 80.3972 21.52 81.0372 21.8C81.6905 22.08 82.2439 22.4667 82.6972 22.96C83.1505 23.4533 83.4972 24.02 83.7372 24.66C83.9772 25.2867 84.0972 25.9667 84.0972 26.7C84.0972 26.8867 84.0839 27.08 84.0572 27.28C84.0439 27.48 84.0105 27.6533 83.9572 27.8H75.5572V25.8H82.4772L81.2372 26.74C81.3572 26.1267 81.3239 25.58 81.1372 25.1C80.9639 24.62 80.6705 24.24 80.2572 23.96C79.8572 23.68 79.3705 23.54 78.7972 23.54C78.2505 23.54 77.7639 23.68 77.3372 23.96C76.9105 24.2267 76.5839 24.6267 76.3572 25.16C76.1439 25.68 76.0639 26.3133 76.1172 27.06C76.0639 27.7267 76.1505 28.32 76.3772 28.84C76.6172 29.3467 76.9639 29.74 77.4172 30.02C77.8839 30.3 78.4172 30.44 79.0172 30.44C79.6172 30.44 80.1239 30.3133 80.5372 30.06C80.9639 29.8067 81.2972 29.4667 81.5372 29.04L83.6572 30.08C83.4439 30.6 83.1105 31.06 82.6572 31.46C82.2039 31.86 81.6639 32.1733 81.0372 32.4C80.4239 32.6267 79.7439 32.74 78.9972 32.74ZM91.3233 32.74C90.2433 32.74 89.2699 32.4933 88.4033 32C87.5499 31.4933 86.8766 30.8133 86.3833 29.96C85.8899 29.0933 85.6433 28.12 85.6433 27.04C85.6433 25.96 85.8899 24.9933 86.3833 24.14C86.8766 23.2867 87.5499 22.6133 88.4033 22.12C89.2699 21.6267 90.2433 21.38 91.3233 21.38C92.0966 21.38 92.8166 21.52 93.4833 21.8C94.1499 22.0667 94.7233 22.44 95.2033 22.92C95.6966 23.3867 96.0499 23.9467 96.2633 24.6L93.9633 25.6C93.7633 25.0533 93.4233 24.6133 92.9433 24.28C92.4766 23.9467 91.9366 23.78 91.3233 23.78C90.7499 23.78 90.2366 23.92 89.7833 24.2C89.3433 24.48 88.9966 24.8667 88.7433 25.36C88.4899 25.8533 88.3633 26.42 88.3633 27.06C88.3633 27.7 88.4899 28.2667 88.7433 28.76C88.9966 29.2533 89.3433 29.64 89.7833 29.92C90.2366 30.2 90.7499 30.34 91.3233 30.34C91.9499 30.34 92.4966 30.1733 92.9633 29.84C93.4299 29.5067 93.7633 29.06 93.9633 28.5L96.2633 29.54C96.0499 30.1533 95.7033 30.7067 95.2233 31.2C94.7433 31.68 94.1699 32.06 93.5033 32.34C92.8366 32.6067 92.1099 32.74 91.3233 32.74ZM103.571 32.74C102.505 32.74 101.531 32.4933 100.651 32C99.7846 31.5067 99.0913 30.8333 98.5713 29.98C98.0646 29.1267 97.8113 28.1533 97.8113 27.06C97.8113 25.9667 98.0646 24.9933 98.5713 24.14C99.0913 23.2867 99.7846 22.6133 100.651 22.12C101.518 21.6267 102.491 21.38 103.571 21.38C104.638 21.38 105.605 21.6267 106.471 22.12C107.338 22.6133 108.025 23.2867 108.531 24.14C109.051 24.98 109.311 25.9533 109.311 27.06C109.311 28.1533 109.051 29.1267 108.531 29.98C108.011 30.8333 107.318 31.5067 106.451 32C105.585 32.4933 104.625 32.74 103.571 32.74ZM103.571 30.34C104.158 30.34 104.671 30.2 105.111 29.92C105.565 29.64 105.918 29.2533 106.171 28.76C106.438 28.2533 106.571 27.6867 106.571 27.06C106.571 26.42 106.438 25.86 106.171 25.38C105.918 24.8867 105.565 24.5 105.111 24.22C104.671 23.9267 104.158 23.78 103.571 23.78C102.971 23.78 102.445 23.9267 101.991 24.22C101.538 24.5 101.178 24.8867 100.911 25.38C100.658 25.86 100.531 26.42 100.531 27.06C100.531 27.6867 100.658 28.2533 100.911 28.76C101.178 29.2533 101.538 29.64 101.991 29.92C102.445 30.2 102.971 30.34 103.571 30.34ZM111.298 32.5V21.62H113.758V24.04L113.558 23.68C113.811 22.8667 114.205 22.3 114.738 21.98C115.285 21.66 115.938 21.5 116.698 21.5H117.338V23.82H116.398C115.651 23.82 115.051 24.0533 114.598 24.52C114.145 24.9733 113.918 25.6133 113.918 26.44V32.5H111.298ZM123.839 32.74C122.785 32.74 121.845 32.4933 121.019 32C120.192 31.4933 119.539 30.8067 119.059 29.94C118.579 29.0733 118.339 28.1133 118.339 27.06C118.339 25.9933 118.579 25.0333 119.059 24.18C119.539 23.3267 120.192 22.6467 121.019 22.14C121.859 21.6333 122.792 21.38 123.819 21.38C124.645 21.38 125.379 21.5467 126.019 21.88C126.672 22.2 127.185 22.6533 127.559 23.24L127.159 23.78V17.36H129.779V32.5H127.299V30.4L127.579 30.92C127.205 31.5067 126.685 31.96 126.019 32.28C125.352 32.5867 124.625 32.74 123.839 32.74ZM124.119 30.34C124.719 30.34 125.245 30.2 125.699 29.92C126.152 29.64 126.505 29.2533 126.759 28.76C127.025 28.2667 127.159 27.7 127.159 27.06C127.159 26.4333 127.025 25.8733 126.759 25.38C126.505 24.8733 126.152 24.48 125.699 24.2C125.245 23.92 124.719 23.78 124.119 23.78C123.532 23.78 123.005 23.9267 122.539 24.22C122.072 24.5 121.705 24.8867 121.439 25.38C121.185 25.86 121.059 26.42 121.059 27.06C121.059 27.7 121.185 28.2667 121.439 28.76C121.705 29.2533 122.072 29.64 122.539 29.92C123.005 30.2 123.532 30.34 124.119 30.34ZM132.216 32.5V21.62H134.836V32.5H132.216ZM132.216 20.4V17.6H134.836V20.4H132.216ZM137.255 32.5V21.62H139.715V23.76L139.515 23.38C139.768 22.7267 140.182 22.2333 140.755 21.9C141.342 21.5533 142.022 21.38 142.795 21.38C143.595 21.38 144.302 21.5533 144.915 21.9C145.542 22.2467 146.028 22.7333 146.375 23.36C146.722 23.9733 146.895 24.6867 146.895 25.5V32.5H144.275V26.12C144.275 25.64 144.182 25.2267 143.995 24.88C143.808 24.5333 143.548 24.2667 143.215 24.08C142.895 23.88 142.515 23.78 142.075 23.78C141.648 23.78 141.268 23.88 140.935 24.08C140.602 24.2667 140.342 24.5333 140.155 24.88C139.968 25.2267 139.875 25.64 139.875 26.12V32.5H137.255ZM154.391 36.9C153.577 36.9 152.824 36.7667 152.131 36.5C151.437 36.2333 150.837 35.86 150.331 35.38C149.837 34.9133 149.477 34.36 149.251 33.72L151.691 32.8C151.851 33.3067 152.164 33.7133 152.631 34.02C153.111 34.34 153.697 34.5 154.391 34.5C154.924 34.5 155.391 34.4 155.791 34.2C156.204 34 156.524 33.7067 156.751 33.32C156.977 32.9467 157.091 32.4933 157.091 31.96V29.48L157.591 30.08C157.217 30.7333 156.717 31.2267 156.091 31.56C155.464 31.8933 154.751 32.06 153.951 32.06C152.937 32.06 152.031 31.8267 151.231 31.36C150.431 30.8933 149.804 30.2533 149.351 29.44C148.897 28.6267 148.671 27.7133 148.671 26.7C148.671 25.6733 148.897 24.76 149.351 23.96C149.804 23.16 150.424 22.5333 151.211 22.08C151.997 21.6133 152.891 21.38 153.891 21.38C154.704 21.38 155.417 21.5533 156.031 21.9C156.657 22.2333 157.177 22.72 157.591 23.36L157.231 24.02V21.62H159.711V31.96C159.711 32.9067 159.477 33.7533 159.011 34.5C158.557 35.2467 157.931 35.8333 157.131 36.26C156.344 36.6867 155.431 36.9 154.391 36.9ZM154.271 29.64C154.831 29.64 155.317 29.52 155.731 29.28C156.157 29.0267 156.491 28.68 156.731 28.24C156.971 27.8 157.091 27.2933 157.091 26.72C157.091 26.16 156.964 25.66 156.711 25.22C156.471 24.7667 156.137 24.4133 155.711 24.16C155.297 23.9067 154.817 23.78 154.271 23.78C153.724 23.78 153.231 23.9067 152.791 24.16C152.351 24.4133 152.004 24.7667 151.751 25.22C151.511 25.66 151.391 26.16 151.391 26.72C151.391 27.28 151.511 27.78 151.751 28.22C152.004 28.66 152.344 29.0067 152.771 29.26C153.211 29.5133 153.711 29.64 154.271 29.64Z" fill="#100A55"/>
</svg>
